<?xml version="1.0" encoding="iso-8859-1"?>
<!-- Generator: Adobe Illustrator 16.0.0, SVG Export Plug-In . SVG Version: 6.00 Build 0)  -->
<!DOCTYPE svg PUBLIC "-//W3C//DTD SVG 1.1//EN" "http://www.w3.org/Graphics/SVG/1.1/DTD/svg11.dtd">
<svg version="1.1" id="Capa_1" xmlns="http://www.w3.org/2000/svg" xmlns:xlink="http://www.w3.org/1999/xlink" x="0px" y="0px"
	 width="484.602px" height="484.603px" viewBox="0 0 484.602 484.603" style="enable-background:new 0 0 484.602 484.603;"
	 xml:space="preserve">
<g>
	<g>
		<path d="M438.805,454.113c-0.753-1.223-1.503-2.447-2.264-3.665c-1.552-2.485-2.933-4.995-4.304-7.583
			c-2.922-5.515-4.936-11.556-6.654-17.535c-1.86-6.467-3.056-13.113-3.907-19.782c-0.849-6.633-1.408-13.396-1.392-20.089
			c0.026-10.803,0.474-21.456,1.617-32.207c1.44-13.528,3.847-26.974,6.88-40.23c1.805-7.887,3.823-15.725,6.118-23.484
			c5.476-9.888,7.737-21.637,5.633-33.635l-21.204-120.819c-3.373-19.222-17.822-35.188-36.609-40.473
			c-19.531-5.496-41.045,1.414-53.747,17.223c-4.261,5.302-6.554,11.237-9.336,17.984c-4.926,11.941-13.626,22.275-23.051,31.009
			c-9.875,9.148-21.214,16.876-33.278,22.849c-3.918,1.941-7.882,3.754-11.9,5.456l2.831-29.78
			c0.641-7.109,5.663-16.316,6.774-18.529c1.412-2.81,3.328-5.129,5.856-7.088c1.216-0.941,1.734-2.528,1.311-4.006
			c-0.425-1.477-1.707-2.547-3.236-2.699c-2.436-0.245-4.927,0.083-7.25,0.924c-0.134-3.197-1.38-5.984-3.636-7.967
			c-0.193-0.169-0.444-0.382-0.746-0.604c-0.617-1.046-1.466-1.976-2.458-2.69c-1.261-0.912-2.777-1.518-4.462-1.793
			c-1.78-2.912-4.838-4.773-8.338-4.926c-3.093-0.13-5.995,1.141-8.266,3.532c-0.338-0.028-0.675-0.043-1.011-0.043
			c-3.51,0-6.553,1.566-8.433,4.264c-0.279,0.126-0.552,0.269-0.818,0.427c-2.283-1.466-5.208-2.565-7.97-2.565
			c-1.025,0-2.002,0.15-2.905,0.446c-1.349,0.443-2.334,1.608-2.544,3.012c-0.211,1.405,0.389,2.808,1.549,3.626
			c0.529,0.374,1.025,0.878,1.492,1.525c-1.537,1.354-2.572,3.195-2.872,5.283c-0.33,2.299,0.204,4.709,1.551,7.078
			c-1.745,3.856-1.315,7.962,1.291,10.969c2.341,2.711,5.96,3.881,9.74,3.151c0.93,0.914,1.983,1.617,3.134,2.089l0.659,7.839
			c-4.414,0.254-8.666,2.466-11.357,6.397c-4.527,6.607-9.214,13.13-14.85,18.854c-6.1-13.012-11.752-26.23-17.244-39.507
			c-2.105-5.116-4.444-10.181-7.631-14.725c-3.134-4.47-7.085-8.236-11.657-11.215c-8.16-5.315-17.923-7.937-27.648-7.447
			c-13.324,0.668-25.923,7.162-34.188,17.637c-0.891,1.128-1.783,2.255-2.672,3.385c-1.859,2.413-3.419,5.204-4.958,7.83
			c-1.627,2.776-3.186,5.582-4.659,8.441c-3.052,5.922-5.709,12.032-8.092,18.253c-4.886,12.75-8.509,25.967-11.368,39.309
			c-2.847,13.287-4.9,26.743-6.354,40.252c0,0-16.901,124.316-16.899,168.629c0,6.729-0.026,8.431,2.123,11.041
			c2.151,2.615,5.561,2.409,8.945,2.409h19.22c-0.61,2.041-1.286,4.063-1.993,6.068c-1.079,3.056-2.23,6.184-3.727,9.065
			c-1.395,2.685-2.812,5.308-4.416,7.872c-0.831,1.33-1.65,2.666-2.475,4c-4.988,8.157-2.561,19.104,5.362,24.434
			c7.795,5.242,18.641,3.472,24.384-3.954c2.423-3.137,4.891-6.235,7.051-9.563c2.718-4.187,5.167-8.46,7.554-12.845
			c4.114-7.951,7.3-16.47,9.831-25.078h50.655c0.703,11.359-0.417,26.031-0.451,36.28c0.002,9.612,7.851,17.718,17.445,18.085
			c9.528,0.364,17.906-7.043,18.734-16.539c0.935-10.744,2.905-25.847,3.162-37.827h0.574c1.309,0,18.488,0.434,22.495,0.049
			c6.326-0.604,6.467-2.497,6.387-5.652c-0.132-5.156-0.544-21.081-0.544-21.081c-1.093-21.126-3.782-40.188-7.473-57.26
			l-0.007-0.057h-0.005c-15.187-70.188-47.285-106.716-54.842-114.535c-0.185-4.414-0.279-8.83-0.234-13.247
			c3.852,4.245,8.788,7.394,14.389,8.722c5.783,1.37,11.874,0.618,17.282-1.776c11.338-5.018,19.145-16.066,25.318-26.374
			c-0.567,13.143,4.334,19.471,4.334,19.471c3.606,4.174,9.35,6.252,15.087,4.89c10.937-2.6,21.802-5.499,32.271-9.645
			c12.631-5.003,24.893-10.979,36.151-18.631c3.072-2.089,6.116-4.227,9.04-6.524l14.937,85.112
			c1.062,6.046,3.149,11.653,6.043,16.684c-14.258,23.019-25.101,48.172-31.726,74.439c-6.577,26.074-9.21,52.89-8.041,79.748
			c0.272,6.298,0.831,15.226,1.378,21.503c0.89,9.866,9.676,17.548,19.578,17.055c9.838-0.491,17.78-8.884,17.754-18.729
			c-0.01-3.609-0.017-9.885-0.031-13.494c-0.027-6.521,0.51-13.061,1.053-19.553c1.089-13.051,3.498-26.05,6.896-38.692
			c2.481-9.243,5.49-18.442,9.248-27.253c3.715-8.713,7.92-17.104,12.532-25.373c-1.12,23.886-0.214,48.256,4.9,71.679
			c2.677,12.259,6.294,24.332,11.596,35.729c2.525,5.431,5.29,10.739,8.556,15.767c2.744,4.227,5.713,8.215,8.793,12.202
			c6.122,7.856,17.756,9.521,25.801,3.632C441.708,473.281,443.84,462.278,438.805,454.113z M233.184,150.618
			c-0.892-1.913-2.155-3.597-4.262-4.597c-1.382-1.258-2.67,0.746-4.15,0.168c0.223,0.087-1.188-0.444,0,0
			c-0.917-0.343-1.537-1.309-1.952-2.146c-0.475-0.96-0.941-2.053-2.281-1.722c-0.549,0.135-1.064,0.589-1.571,0.835
			c-0.843,0.41-1.807,0.718-2.754,0.599c-2.337-0.296-2.695-2.756-1.759-4.509c0.648-1.215,2.65-2.677,1.221-4.097
			c-1.118-1.107-2.768-3.183-2.274-4.877c0.518-1.777,3.236-1.382,4.582-1.114c0.758,0.151,1.586,0.572,2.351,0.277
			c1.235-0.477,1.152-2.101,1.544-3.163c0.249-0.676,0.723-1.964,1.575-2.083c1.195-0.167,1.967,1.204,2.914,1.628
			c1.032,0.461,2.259-0.239,2.384-1.364c0.149-1.346-1.416-2.257-2.411-2.833c0.92-1.207,2.495-1.169,3.835-0.812
			c1.21,0.322,2.8,1.224,3.494-0.447c0.851-1.862,2.68-3.753,4.911-3.111c1.15,0.33,1.867,1.32,2.146,2.442
			c0.266,1.07,0.351,2.335,1.819,2.335c-0.415,0.201-0.804,0.416-1.159,0.635c-3.174-1.879-7.292-2.533-10.164,0.253
			c-2.21,2.145-2.449,5.375-1.868,8.242c-0.665,0.507-1.27,1.092-1.795,1.734c-2.137-2.955-6.892-2.096-7.792,1.463
			c-0.899,3.552,2.803,6.505,6.108,5.083c0.835,3.892,4.087,6.17,7.969,6.37c0.633,1.505,1.082,3.14,1.396,4.81L233.184,150.618
			L233.184,150.618z M246.436,142.231c-0.414,2.597-1.958,5.872-4.995,5.872s-4.582-3.277-4.996-5.872
			c-3.25,0.7-7.761-0.593-7.343-4.735c0.226-2.239,2.322-3.915,4.259-4.763c-0.813-1.979-1.446-4.742-0.292-6.701
			c1.92-3.258,6.261-0.978,8.368,0.828c0,0,2.606-2.478,5.305-2.478c4.64,0,4.146,5.443,2.78,8.35
			c1.914,0.942,3.885,2.701,4.154,4.923C254.184,141.832,249.626,142.817,246.436,142.231z"/>
		<path d="M340.607,97.103c25.23-13.022,35.127-44.035,22.104-69.262C349.688,2.608,318.678-7.286,293.448,5.738
			C268.221,18.758,258.323,49.766,271.347,75C284.369,100.227,315.381,110.125,340.607,97.103z"/>
		<path d="M156.501,114.159c24.446,12.618,54.499,3.027,67.118-21.421c12.622-24.453,3.03-54.503-21.417-67.121
			c-24.451-12.621-54.503-3.034-67.122,21.42C122.459,71.485,132.05,101.54,156.501,114.159z"/>
		<circle cx="241.328" cy="135.586" r="4.38"/>
	</g>
</g>
<g>
</g>
<g>
</g>
<g>
</g>
<g>
</g>
<g>
</g>
<g>
</g>
<g>
</g>
<g>
</g>
<g>
</g>
<g>
</g>
<g>
</g>
<g>
</g>
<g>
</g>
<g>
</g>
<g>
</g>
</svg>
