<?xml version="1.0" encoding="iso-8859-1"?>
<!-- Generator: Adobe Illustrator 16.0.0, SVG Export Plug-In . SVG Version: 6.00 Build 0)  -->
<!DOCTYPE svg PUBLIC "-//W3C//DTD SVG 1.1//EN" "http://www.w3.org/Graphics/SVG/1.1/DTD/svg11.dtd">
<svg version="1.1" id="Capa_1" xmlns="http://www.w3.org/2000/svg" xmlns:xlink="http://www.w3.org/1999/xlink" x="0px" y="0px"
	 width="480.355px" height="480.354px" viewBox="0 0 480.355 480.354" style="enable-background:new 0 0 480.355 480.354;"
	 xml:space="preserve">
<g>
	<g>
		<path d="M308.391,327.906c-3.055-4.413-5.945-8.95-9.551-12.943c-4.146-4.591-8.89-8.609-13.869-12.26
			c-9.422-6.902-19.777-12.533-30.275-17.612c-8.237-3.985-16.645-7.618-25.146-11c0.123-4.994-0.402-9.997-0.43-14.995
			c-0.027-5.19,0.143-10.382,0.467-15.563c0.676-10.821,1.951-21.677,4.377-32.255c0.18-0.783,0.367-1.564,0.561-2.343
			c8.777,9.276,18.027,18.038,27.895,26.151c4.776,3.928,9.646,7.698,14.586,11.42c4.617,3.477,9.412,6.704,14.17,9.983
			c0.563,0.389,1.125,0.776,1.688,1.165c7.426,5.133,17.864,3.473,23.366-3.668c5.379-6.978,4.47-17.216-2.032-23.151
			c-7.498-6.861-15.084-13.65-21.998-21.112c-4.312-4.651-8.47-9.39-12.604-14.195c-4.082-4.744-7.752-9.859-11.402-14.935
			c-3.891-5.409-7.496-11.101-10.725-16.93c-3.058-5.523-5.344-11.44-8.191-17.083c-10.237-20.283-21.199-37.485-41.854-42.747
			c-13.061-3.327-25.006-0.994-39.271,3.957c-10.217,3.547-19.953,8.672-29.283,14.1c-11.066,6.438-21.66,13.746-31.641,21.764
			c-19.881,15.971-37.742,34.558-52.795,55.153c-5.4,7.389-10.4,15.016-15.271,22.759c-4.811,7.699-2.666,18.174,4.824,23.318
			c7.357,5.054,17.678,3.468,23.197-3.539c6.088-7.72,12.326-15.241,19.045-22.427c8.695-9.301,18.16-17.882,28.145-25.779
			c2.219-1.755,4.473-3.483,6.775-5.126c-5.152,23.275-7.178,47.235-7.143,71.049c0.008,5.716,0.113,11.442,0.477,17.148
			c0.641,10.067,3.893,19.874,9.48,28.279c1.955,2.94,4.18,5.7,6.637,8.235c-5.813,24.95-13.986,49.603-24.793,72.84
			c-5.332,11.462-11.486,22.448-18.365,33.049c-5.906,9.103-12.867,17.375-20.234,25.312c-0.373,0.401-0.746,0.801-1.119,1.201
			c-6.713,7.284-7.348,18.659-1.49,26.646c5.566,7.592,15.807,10.6,24.586,7.187c2.273-0.883,4.383-2.168,6.219-3.772
			c8.191-7.153,16.084-14.578,23.215-22.807c8.221-9.484,15.906-19.438,22.748-29.967c14.027-21.584,25.678-44.511,35.424-68.325
			c3.465-8.467,6.662-17.04,9.66-25.683c1.895-0.489,3.75-1.07,5.561-1.741c10.602,2.691,21.1,5.869,31.412,9.515
			c6.033,2.132,12.01,4.44,17.846,7.065c5.396,2.428,10.826,5.071,15.637,8.549c0.688,0.497,1.34,1.112,2.068,1.543
			c0.647,0.575,1.188,1.337,1.76,1.986c1.109,1.263,2.219,2.524,3.328,3.787c2.178,2.479,4.355,4.958,6.533,7.438
			c4.332,4.931,8.664,9.86,12.996,14.792c7.926,9.021,15.854,18.045,23.781,27.066c8.842,10.064,17.684,20.128,26.524,30.191
			c0.099,0.111,0.195,0.223,0.293,0.334c6.381,7.278,17.289,9.249,25.812,4.656c8.178-4.407,12.586-13.927,10.631-23.012
			c-0.584-2.705-1.707-5.282-3.283-7.556C367.344,413.019,337.868,370.464,308.391,327.906
			C306.549,325.247,337.868,370.464,308.391,327.906z"/>
		<path d="M245.748,115.553c17.986,0.659,35.556-7.312,46.933-21.252c11.533-14.131,15.73-33.358,11.164-51.02
			c-4.436-17.162-16.9-31.661-33.187-38.652c-16.772-7.2-36.483-5.939-52.192,3.355c-15.383,9.101-25.91,25.175-28.014,42.932
			c-2.131,17.984,4.432,36.24,17.545,48.733C218.164,109.338,231.715,115.039,245.748,115.553
			C277.651,116.721,213.836,114.385,245.748,115.553z"/>
		<path d="M389.184,280.855c-18.016,0-35.186,9.145-45.27,24.07c-10.226,15.136-12.148,34.947-5.031,51.773
			c6.93,16.389,21.859,28.665,39.299,32.234c17.848,3.652,36.726-2.001,49.605-14.881c12.881-12.88,18.532-31.758,14.881-49.605
			c-3.568-17.439-15.846-32.369-32.234-39.301C403.727,282.309,396.465,280.855,389.184,280.855z"/>
	</g>
</g>
<g>
</g>
<g>
</g>
<g>
</g>
<g>
</g>
<g>
</g>
<g>
</g>
<g>
</g>
<g>
</g>
<g>
</g>
<g>
</g>
<g>
</g>
<g>
</g>
<g>
</g>
<g>
</g>
<g>
</g>
</svg>
