<?xml version="1.0" encoding="iso-8859-1"?>
<!-- Generator: Adobe Illustrator 16.0.0, SVG Export Plug-In . SVG Version: 6.00 Build 0)  -->
<!DOCTYPE svg PUBLIC "-//W3C//DTD SVG 1.1//EN" "http://www.w3.org/Graphics/SVG/1.1/DTD/svg11.dtd">
<svg version="1.1" id="Capa_1" xmlns="http://www.w3.org/2000/svg" xmlns:xlink="http://www.w3.org/1999/xlink" x="0px" y="0px"
	 width="488.463px" height="488.463px" viewBox="0 0 488.463 488.463" style="enable-background:new 0 0 488.463 488.463;"
	 xml:space="preserve">
<g>
	<g>
		<path d="M342.579,236.483c8.961,0,17.661-3.749,23.819-10.257c6.191-6.544,9.438-15.494,8.908-24.486
			c-0.523-8.896-4.76-17.327-11.562-23.082c-6.901-5.842-16.07-8.58-25.049-7.521c-8.812,1.039-16.955,5.742-22.299,12.818
			c-5.464,7.234-7.686,16.591-6.101,25.516C313.044,224.918,326.905,236.483,342.579,236.483z"/>
		<path d="M403.61,332.637c0.004,0.115,0.005,0.117-0.001-0.143c-0.033-1.135-0.023-0.719-0.011-0.278
			c-0.107-3.578-0.29-7.142-0.515-10.716c-0.218-2.186-0.438-4.369-0.661-6.553c-0.813-5.754-1.832-11.407-3.13-17.073
			c-0.468-1.7-0.939-3.414-1.413-5.136c-1.996-6.125-4.3-11.984-7.155-17.762c-1.32-2.396-2.713-4.724-4.129-7.062
			c-6.655-9.911-15.325-18.844-26.202-24.077c-4.915-2.366-10.29-4.615-15.769-5.162c-5.208-0.52-10.572,0.517-15.33,2.646
			c-3.866,1.73-7.191,4.402-10.546,6.972c-6.114,4.686-11.791,8.921-18.104,12.744c-3.495,2.117-7.095,4.086-10.853,5.697
			c-3.197,1.373-6.789,2.767-10.322,2.725c0.05-4.889,0.109-9.771,0.01-14.659c-0.154-5.745-0.439-11.465-0.785-17.201
			c-0.329-3.417-0.658-6.833-0.998-10.249c-0.588-4.336-1.16-8.665-1.917-12.975c-0.809-4.608-1.791-9.165-2.798-13.733
			c-0.705-2.661-1.416-5.343-2.13-8.036c-0.832-2.682-1.657-5.38-2.54-8.073c-1.251-3.381-2.463-6.761-3.835-10.096
			c-1.353-3.283-2.862-6.48-4.379-9.689c-1.99-3.768-4.067-7.449-6.216-11.127c-10.785-16.869-25.037-31.828-43.334-40.509
			c-13.649-7.629-40.065-7.629-54.59-0.23c-22.021,10.454-38.914,29.72-50.131,51.018c-5.996,11.385-10.271,25.211-13.609,37.611
			c-3.33,12.373-5.054,25.073-6.327,37.797c-0.037,0.369-0.073,0.739-0.11,1.108c-0.474,7.354-0.791,10.783-0.963,18.15
			c0.033,3.76,0.068,7.521,0.104,11.281c0.101,7.963,6.585,14.713,14.547,15.078c8.081,0.372,15.212-5.91,15.877-13.969l0.048-0.574
			c0.281-3.406,0.563-6.812,0.841-10.221c0.761-6.523,1.633-9.104,2.646-15.594c1.24-6.393,2.493-12.772,4.254-19.045
			c1.765-6.287,3.742-12.479,6.145-18.556c0.9-2.058,1.722-4.168,2.669-6.191v11.87l-27.226,127.163
			c-0.528,2.698,0.169,5.463,1.915,7.584c1.748,2.123,4.326,3.34,7.075,3.34h20.9l5.846,120.814
			c0.481,9.291,8.368,16.869,17.681,16.916c9.258,0.047,17.188-7.342,17.811-16.574c0.005-0.096,0.011-0.189,0.017-0.283
			l6.26-120.873h1.344l5.846,120.812c0.481,9.291,8.368,16.871,17.681,16.916c9.258,0.047,17.188-7.34,17.811-16.574
			c0.005-0.094,0.011-0.188,0.017-0.281l6.26-120.875h20.54c2.743,0,5.317-1.213,7.065-3.33c1.746-2.117,2.449-4.875,1.918-7.623
			l-26.506-126.944v-11.561c0.439,1.045,0.881,2.092,1.319,3.134c0.779,2.119,1.555,4.229,2.324,6.323
			c2.333,7.294,4.302,14.61,6.04,22.067c0.568,2.943,1.132,5.887,1.697,8.831c0.873,5.701,1.65,11.396,2.334,17.124
			c0.484,4.067,0.735,8.167,1.073,12.25l0.052,0.629c0.733,8.535,8.662,14.862,17.133,13.772c11.88,9.819,29.631,4.47,42.354-0.615
			l-3.169,58.537c-0.356,6.859,1.199,13.756,4.532,19.767l5.221,107.89c0.31,5.943,5.358,10.789,11.316,10.809
			c5.978,0.02,11.062-4.805,11.371-10.771l4.745-85.822l3.849,85.783c0.309,5.945,5.358,10.789,11.316,10.811
			c5.977,0.02,11.062-4.805,11.37-10.771l5.647-108.281c2.852-5.578,4.32-12.705,3.958-19.412l-2.154-39.787
			c0.123,0.324,0.248,0.654,0.371,0.979c1.522,4.627,2.797,9.27,3.934,14.004c0.368,1.873,0.733,3.744,1.101,5.616
			c0.97,6.224,1.676,12.433,2.199,18.709l0.033,0.412c0.444,5.138,5.01,9.11,10.154,8.874c5.092-0.232,9.229-4.536,9.281-9.628
			C403.635,339.214,403.678,335.927,403.61,332.637z"/>
		<path d="M181.798,102.618c0.375,0.008,0.751,0.012,1.127,0.012c18.02,0,35.058-9.75,44.219-25.264
			c9.289-15.733,9.393-35.819,0.266-51.647c-8.992-15.594-25.917-25.522-43.921-25.716c-18.034-0.194-35.186,9.373-44.513,24.809
			c-9.45,15.637-9.761,35.72-0.797,51.642C147.003,92.126,163.813,102.231,181.798,102.618z"/>
	</g>
</g>
<g>
</g>
<g>
</g>
<g>
</g>
<g>
</g>
<g>
</g>
<g>
</g>
<g>
</g>
<g>
</g>
<g>
</g>
<g>
</g>
<g>
</g>
<g>
</g>
<g>
</g>
<g>
</g>
<g>
</g>
</svg>
