<?xml version="1.0" encoding="iso-8859-1"?>
<!-- Generator: Adobe Illustrator 16.0.0, SVG Export Plug-In . SVG Version: 6.00 Build 0)  -->
<!DOCTYPE svg PUBLIC "-//W3C//DTD SVG 1.1//EN" "http://www.w3.org/Graphics/SVG/1.1/DTD/svg11.dtd">
<svg version="1.1" id="Capa_1" xmlns="http://www.w3.org/2000/svg" xmlns:xlink="http://www.w3.org/1999/xlink" x="0px" y="0px"
	 width="500.518px" height="500.518px" viewBox="0 0 500.518 500.518" style="enable-background:new 0 0 500.518 500.518;"
	 xml:space="preserve">
<g>
	<g>
		<path d="M157.221,242.998c8.972,0,17.695-3.673,23.966-10.09c6.282-6.433,9.745-15.263,9.524-24.252
			c-0.221-8.946-4.104-17.56-10.646-23.663c-6.593-6.147-15.525-9.399-24.525-8.954c-8.916,0.44-17.416,4.528-23.35,11.194
			c-6.004,6.746-9.043,15.775-8.375,24.778c0.618,8.352,4.44,16.282,10.563,21.992C140.547,239.755,148.785,242.998,157.221,242.998
			z"/>
		<path d="M309.289,102.751c18.041,0,35.098-9.762,44.268-25.294c9.301-15.752,9.404-35.861,0.269-51.708
			c-9.002-15.611-25.947-25.551-43.972-25.746c-18.057-0.194-35.229,9.383-44.567,24.837c-9.459,15.655-9.771,35.762-0.797,51.702
			c8.834,15.692,25.666,25.808,43.672,26.196C308.537,102.747,308.914,102.751,309.289,102.751z"/>
		<path d="M405.369,222.389c-2.045-24.65-8.158-49.479-21.269-70.688c-12.047-19.489-30.539-36.515-52.821-43.234
			c-17.875-5.388-30.599-5.905-50.406,2.104c-4.689,1.896-9.193,4.241-13.48,6.92c-10.426,6.516-19.52,15.055-26.963,24.821
			c-15.157,19.887-23.153,44.266-26.491,68.831c-2.865,21.1-2.566,42.66-0.293,63.804c-6.337-2.229-12.242-5.696-17.855-9.339
			c-5.244-3.399-10.387-6.984-15.174-11.001c-12.287-10.309-26.162-11.101-39.629-5.423c-10.9,4.595-20.045,12.845-26.941,22.372
			c-3.584,4.953-6.619,10.28-9.111,15.863c-2.622,5.877-4.524,11.962-6.231,18.156c-1.842,8.069-3.381,16.249-3.896,24.526
			c-0.438,7.036-0.577,14.029-0.506,21.078c0.068,5.266,4.408,9.696,9.676,9.845c5.21,0.147,9.755-3.93,10.188-9.119
			c1.031-13.693,2.906-27.628,7.799-40.541c-0.531,9.8-1.061,19.6-1.592,29.398c-0.189,3.496-0.379,6.991-0.568,10.486
			c-0.371,6.888,0.853,13.678,4.004,19.848l5.771,111.396c0.336,6.067,5.506,11,11.59,11.005
			c6.111,0.005,11.297-4.943,11.592-11.044l4.24-87.651l4.541,87.691c0.334,6.069,5.508,11,11.592,11.005
			c6.109,0.005,11.295-4.944,11.59-11.043l5.336-111.036c3.3-5.955,5.025-12.625,4.63-19.924l-3.236-59.288
			c6.121,2.455,12.455,4.521,18.986,5.542c6.551,1.022,13.514,0.913,19.61-1.953c8.426-0.176,15.224-7.541,14.846-15.936
			c-0.922-21.523,0.119-43.475,5.08-64.495c2.604-11.023,6.361-21.822,11.894-31.732c-0.738,6.104-1.479,12.208-2.217,18.313
			c-1.525,12.588-3.052,25.176-4.574,37.764c-1.271,10.484-2.539,20.968-3.812,31.452c-0.213,1.77-0.428,3.538-0.643,5.309
			c-1.396,11.518,0.672,23.384,5.906,33.736c1.147,2.269,2.442,4.463,3.873,6.564l7.909,166.792
			c0.47,9.246,8.271,16.82,17.537,16.95c9.162,0.128,17.121-7.033,17.955-16.16c0.027-0.277,0.045-0.557,0.059-0.836l5.648-125.99
			l5.871,126.021c0.461,9.247,8.258,16.827,17.522,16.964c9.162,0.136,17.127-7.02,17.972-16.145
			c0.024-0.278,0.045-0.558,0.057-0.836l7.646-167.378c7.471-11.291,11.133-25.187,9.377-39.683l-11.109-92.725
			c11.754,21.723,15.543,48.162,16.426,72.557c0.285,7.843,0.269,15.715-0.076,23.557c-0.334,8.021,5.859,15.147,13.857,15.888
			c8.07,0.746,15.498-5.21,16.537-13.245C406.254,262.672,407.014,242.333,405.369,222.389
			C404.428,211.041,406.307,233.745,405.369,222.389z"/>
	</g>
</g>
<g>
</g>
<g>
</g>
<g>
</g>
<g>
</g>
<g>
</g>
<g>
</g>
<g>
</g>
<g>
</g>
<g>
</g>
<g>
</g>
<g>
</g>
<g>
</g>
<g>
</g>
<g>
</g>
<g>
</g>
</svg>
