<?xml version="1.0" encoding="iso-8859-1"?>
<!-- Generator: Adobe Illustrator 16.0.0, SVG Export Plug-In . SVG Version: 6.00 Build 0)  -->
<!DOCTYPE svg PUBLIC "-//W3C//DTD SVG 1.1//EN" "http://www.w3.org/Graphics/SVG/1.1/DTD/svg11.dtd">
<svg version="1.1" id="Capa_1" xmlns="http://www.w3.org/2000/svg" xmlns:xlink="http://www.w3.org/1999/xlink" x="0px" y="0px"
	 width="488.414px" height="488.413px" viewBox="0 0 488.414 488.413" style="enable-background:new 0 0 488.414 488.413;"
	 xml:space="preserve">
<g>
	<g>
		<path d="M243.955,102.618c0.376,0.008,0.752,0.012,1.127,0.012c18.021,0,35.06-9.75,44.22-25.264
			c9.289-15.733,9.394-35.819,0.266-51.647c-8.992-15.594-25.917-25.522-43.92-25.716c-18.034-0.194-35.186,9.373-44.514,24.809
			c-9.449,15.637-9.761,35.72-0.797,51.642C209.16,92.125,225.97,102.23,243.955,102.618z"/>
		<path d="M410.036,242.345c15.673,0,29.533-11.567,32.278-27.012c1.586-8.924-0.638-18.281-6.102-25.516
			c-5.344-7.076-13.486-11.778-22.296-12.818c-8.979-1.059-18.148,1.679-25.052,7.521c-6.8,5.755-11.036,14.186-11.561,23.083
			c-0.528,8.991,2.718,17.94,8.908,24.485C392.373,238.597,401.074,242.345,410.036,242.345z"/>
		<path d="M467.805,305.77c-5.368-23.492-19.239-46.566-41.885-57.372c-12.688-6.054-26.688-4.713-38.783,5.312
			c-5.993,4.968-12.432,9.433-19.117,13.426c-3.591,2.144-7.297,4.137-11.174,5.715c-1.803,0.734-3.654,1.383-5.553,1.827
			c-1.548,0.362-3.46,0.749-5.056,0.485c-0.183-0.065-4.451-2.892-4.451-2.892c-0.141-0.091-0.287-0.167-0.431-0.25
			c0.062-0.528,0.104-1.063,0.109-1.605c0.055-5.128,0.12-10.25,0.023-15.376c0.003,0.093,0.003,0.046-0.004-0.292
			c-0.041-1.54-0.035-1.25-0.022-0.698c-0.341-12.032-1.18-24.021-3.016-35.928c-1.979-12.832-5.171-25.453-9.58-37.662
			c-8.342-23.099-22.68-45.266-43.003-59.531c-4.214-2.988-8.784-5.375-13.311-7.869c-17.334-9.547-37.084-9.547-54.59-0.231
			c-21.517,11.452-38.917,29.724-50.132,51.018c-5.996,11.385-10.271,23.512-13.608,35.912c-3.33,12.372-5.057,25.072-6.327,37.796
			c-1.143,11.436-1.078,22.963-0.97,34.44c0,0.031,0.005,0.063,0.006,0.096c-0.103,0.061-0.209,0.113-0.31,0.179
			c0,0-4.695,3.478-9.507,2.406c-1.902-0.423-3.75-1.093-5.553-1.827c-3.877-1.579-7.583-3.571-11.173-5.715
			c-6.687-3.994-13.124-8.458-19.118-13.426c-12.096-10.025-26.096-11.365-38.783-5.312c-22.642,10.809-36.513,33.882-41.883,57.374
			c-3.198,13.99-3.951,28.146-3.811,42.45c0.067,5.053,4.158,9.348,9.208,9.625c5.191,0.285,9.799-3.734,10.23-8.913
			c1.123-13.434,2.845-26.983,7.634-39.678l0.351,11.344l-16.702,75.128c-0.339,1.729,0.108,3.498,1.226,4.855
			c1.119,1.359,2.77,2.139,4.529,2.139h13.665l3.834,74.017c0.329,5.941,5.396,10.771,11.353,10.77
			c5.978,0,11.047-4.842,11.335-10.809l3.579-73.978h1.183l3.832,74.017c0.328,5.942,5.396,10.771,11.353,10.771
			c5.978,0,11.046-4.842,11.335-10.809l3.548-73.979h13.851c1.756,0,3.404-0.776,4.523-2.131c1.117-1.355,1.568-3.122,1.228-4.88
			l-16.536-75.13l0.521-30.074c8.622,3.446,17.986,6.402,27.381,5.958c4.621-0.219,9.242-1.408,13.134-3.975
			c2.408-1.589,4.312-3.605,5.894-5.926c1.029,0.28,2.096,0.463,3.194,0.515c8.081,0.372,15.212-5.91,15.877-13.97
			c0.314-3.81,0.522-7.643,0.964-11.438c0.688-5.924,1.472-11.812,2.392-17.705c1.93-12.356,5.261-24.56,9.629-36.267
			c1.092-2.927,2.291-5.841,3.617-8.671l0.535,36.234l-29.211,131.385c-0.591,3.021,0.189,6.118,2.144,8.492
			c1.958,2.377,4.845,3.74,7.922,3.74h23.14l4.481,92.618c0.482,9.292,8.368,16.871,17.681,16.917
			c9.258,0.046,17.188-7.341,17.811-16.575c0.006-0.094,0.012-0.188,0.017-0.282l4.8-92.679h4.168l4.481,92.618
			c0.481,9.292,8.367,16.871,17.681,16.917c9.258,0.046,17.188-7.341,17.811-16.575c0.006-0.094,0.013-0.188,0.018-0.282l4.8-92.679
			h22.362c3.07,0,5.954-1.358,7.91-3.729c1.955-2.37,2.743-5.458,2.147-8.534l-28.855-131.978l0.412-35.663
			c4.975,11.813,8.284,26.446,10.692,39.015c2.077,10.846,3.171,21.794,4.081,32.789c0.021,0.269,0.044,0.535,0.064,0.804
			c0.691,8.032,7.816,14.25,15.859,13.899c0.799-0.035,1.577-0.149,2.341-0.308c1.745,2.908,3.903,5.417,6.778,7.312
			c3.892,2.566,8.513,3.757,13.134,3.976c9.395,0.444,18.759-2.513,27.381-5.958l-3.169,58.038
			c-0.387,7.144,1.303,13.416,4.531,19.244l5.223,108.911c0.289,5.967,5.357,10.809,11.335,10.809
			c5.957,0,11.024-4.828,11.354-10.771l4.442-85.822l4.15,85.783c0.288,5.967,5.356,10.809,11.335,10.809
			c5.957,0,11.022-4.828,11.353-10.77l5.646-109.022c3.058-5.985,4.287-12.601,3.925-19.286c-0.173-3.194-0.346-6.389-0.519-9.583
			c-0.534-9.863-1.067-19.728-1.603-29.591c4.789,12.693,6.511,26.244,7.634,39.678c0.433,5.179,5.039,9.198,10.23,8.913
			c5.05-0.277,9.141-4.572,9.208-9.625C471.756,333.916,471.003,319.76,467.805,305.77z"/>
		<path d="M78.375,242.345c8.962,0,17.663-3.748,23.821-10.257c6.191-6.545,9.438-15.494,8.908-24.485
			c-0.523-8.897-4.76-17.327-11.56-23.083c-6.903-5.842-16.073-8.58-25.052-7.521c-8.81,1.04-16.952,5.743-22.296,12.818
			c-5.464,7.234-7.687,16.591-6.101,25.516C48.843,230.778,62.703,242.345,78.375,242.345z"/>
	</g>
</g>
<g>
</g>
<g>
</g>
<g>
</g>
<g>
</g>
<g>
</g>
<g>
</g>
<g>
</g>
<g>
</g>
<g>
</g>
<g>
</g>
<g>
</g>
<g>
</g>
<g>
</g>
<g>
</g>
<g>
</g>
</svg>
