<?xml version="1.0" encoding="iso-8859-1"?>
<!-- Generator: Adobe Illustrator 16.0.0, SVG Export Plug-In . SVG Version: 6.00 Build 0)  -->
<!DOCTYPE svg PUBLIC "-//W3C//DTD SVG 1.1//EN" "http://www.w3.org/Graphics/SVG/1.1/DTD/svg11.dtd">
<svg version="1.1" id="Capa_1" xmlns="http://www.w3.org/2000/svg" xmlns:xlink="http://www.w3.org/1999/xlink" x="0px" y="0px"
	 width="497.287px" height="497.287px" viewBox="0 0 497.287 497.287" style="enable-background:new 0 0 497.287 497.287;"
	 xml:space="preserve">
<g>
	<g>
		<path d="M114.386,103.985c2.213,0.283,4.445,0.423,6.676,0.423c18.027,0,35.111-9.588,44.533-24.953
			c9.557-15.583,10.166-35.625,1.572-51.76c-8.432-15.829-24.834-26.453-42.74-27.592C106.353-1.047,88.64,7.469,78.255,22.31
			C67.78,37.283,65.954,57.231,73.546,73.86C80.968,90.117,96.652,101.723,114.386,103.985z"/>
		<path d="M448.47,394.317c12.574-14.64,20.529-31.96,23.01-50.088c2.408-17.589-0.316-35.488-7.877-51.762
			c-7.105-15.299-18.467-29.106-32.854-39.932c-14.482-10.899-31.928-18.687-50.443-22.519c-7.332-1.518-14.9-2.433-22.498-2.72
			c-1.771-0.058-3.482,0.589-4.754,1.813c-1.273,1.225-1.992,2.916-1.992,4.682v96.416h-92.285v-46.99
			c0-2.968-2.008-5.558-4.881-6.296l-23.749-6.104c-3.476-0.894-7.02,1.2-7.913,4.677l-3.209,12.484
			c-0.43,1.669-0.178,3.44,0.699,4.925s2.308,2.559,3.978,2.988l9.185,2.359v28.775c0,2.567,0.018,5.605,0.149,8.691
			c1.802,41.627,31.639,78.284,76.014,93.386c0.105,0.037,0.221,0.052,0.328,0.083l-28.531,25.646
			c-0.881-0.111-1.774-0.188-2.688-0.188c-11.775,0-21.32,9.545-21.32,21.321c0,11.775,9.545,21.32,21.32,21.32
			c10.984,0,20.021-8.309,21.188-18.982l43.916-48.859l24.375-0.005l43.486,48.381c0.941,10.905,10.076,19.466,21.227,19.466
			c11.775,0,21.322-9.546,21.322-21.32c0-11.775-9.547-21.321-21.322-21.321c-0.795,0-1.578,0.051-2.352,0.136l-28.553-25.664
			c0.143-0.046,0.285-0.091,0.426-0.146C418.378,422.394,434.927,410.087,448.47,394.317z"/>
		<path d="M218.724,248.447c-1.43-25.374-6.061-50.767-16.32-74.137c-9.848-22.429-25.676-43.062-47.041-55.544
			c-9.596-5.605-23.943-10.585-34.162-10.495c-10.219,0.09-19.035,2.3-28.699,7.347c-9.59,5.007-18.92,10.664-27.744,16.922
			c-10.047,7.127-19.688,15.237-27.205,25.063c-5.713,7.47-10.26,16.146-11.914,25.476c-1.701,9.591-0.246,19.94,4.602,28.462
			c7.107,13.57,20.545,23.034,33.797,29.986l-26.54,121.039c-0.481,2.464,0.155,4.99,1.749,6.926
			c1.597,1.939,3.951,3.051,6.462,3.051h27.098l5.204,107.532c0.484,9.338,8.332,17.012,17.691,17.208
			c9.209,0.194,17.303-6.872,18.342-16.026c0.041-0.372,0.072-0.746,0.092-1.119l5.572-107.595h2.906l5.203,107.532
			c0.484,9.338,8.332,17.012,17.691,17.208c9.209,0.194,17.303-6.872,18.342-16.026c0.041-0.372,0.072-0.746,0.092-1.119
			l5.572-107.595h26.224c2.504,0,4.856-1.107,6.452-3.041c1.595-1.934,2.237-4.453,1.751-6.961l-30.87-145.666V205.11
			c9.367,22.223,12.988,46.123,14.969,69.999c0.043,0.527,0.086,1.054,0.129,1.582c0.703,8.168,7.945,14.493,16.125,14.142
			c8.121-0.349,14.738-7.203,14.824-15.327C219.119,254.789,218.943,252.33,218.724,248.447z M168.013,241.46
			c1.256-2.76,2.497-5.488-0.014,0.033c-2.512,5.521-1.271,2.792-0.016,0.032c-5.054,11.062-18.112,15.948-29.186,10.91
			l-32.559-14.811c4.809-4.733,4.869-12.701,0.104-17.48c-2.068-2.076-4.861-3.372-7.785-3.596
			c-1.748-0.133-3.484,0.203-5.221,0.354c-2.096,0.183-4.199,0.275-6.303,0.288c-0.158-1.334-0.211-2.688-0.121-4.046
			c-8.824,4.505-19.918,2.292-26.303-5.284c-5.316-6.31-6.561-15.334-3.146-22.844l0.584-1.28
			c3.768-8.286,12.621-13.414,21.688-12.545c9.648,0.924,17.66,8.444,19.227,18.001c0.307,1.871,0.365,3.781,0.172,5.666
			c5.732-2.833,12.643-3.166,18.914-0.312l39.01,17.744C168.133,217.328,173.031,230.381,168.013,241.46z"/>
		<path d="M167.999,241.493c0.005-0.011,0.009-0.021,0.014-0.033c-0.01,0.021-0.02,0.043-0.029,0.064
			C167.989,241.515,167.995,241.504,167.999,241.493z"/>
	</g>
</g>
<g>
</g>
<g>
</g>
<g>
</g>
<g>
</g>
<g>
</g>
<g>
</g>
<g>
</g>
<g>
</g>
<g>
</g>
<g>
</g>
<g>
</g>
<g>
</g>
<g>
</g>
<g>
</g>
<g>
</g>
</svg>
