<?xml version="1.0" encoding="iso-8859-1"?>
<!-- Generator: Adobe Illustrator 16.0.0, SVG Export Plug-In . SVG Version: 6.00 Build 0)  -->
<!DOCTYPE svg PUBLIC "-//W3C//DTD SVG 1.1//EN" "http://www.w3.org/Graphics/SVG/1.1/DTD/svg11.dtd">
<svg version="1.1" id="Capa_1" xmlns="http://www.w3.org/2000/svg" xmlns:xlink="http://www.w3.org/1999/xlink" x="0px" y="0px"
	 width="505.712px" height="505.712px" viewBox="0 0 505.712 505.712" style="enable-background:new 0 0 505.712 505.712;"
	 xml:space="preserve">
<g>
	<g>
		<path d="M239.389,68.653c0-17.999-9.734-35.02-25.232-44.169c-15.715-9.278-35.775-9.38-51.586-0.266
			c-15.576,8.982-25.492,25.888-25.688,43.872c-0.193,18.014,9.365,35.144,24.781,44.46c15.619,9.438,35.678,9.75,51.58,0.796
			c15.652-8.813,25.744-25.604,26.133-43.567C239.385,69.403,239.389,69.028,239.389,68.653z"/>
		<path d="M362.686,105.194c-0.61-0.445-1.203-0.917-1.768-1.418c-1.154-1.024-2.215-2.17-3.068-3.459
			c-1.406-2.128-2.233-4.714-2.033-7.281c0.318-4.066,2.197-8.106,3.845-11.781c1.854-4.142,4.141-8.153,5.36-12.544
			c0.853-3.054,1.037-6.069,0.392-9.181c-0.578-2.79-1.482-5.557-2.629-8.165c-3.646-8.294-10.119-14.943-17.505-20.037
			c-8.754-6.04-18.727-10.386-28.987-13.115l-0.006-0.001c-4.746-1.261-9.552-0.592-13.583,1.522
			c-0.989-10.646-9.866-19.099-20.514-19.701c-9.729-0.55-18.9,5.857-21.863,15.121c-2.741,8.58,0.351,18.404,7.521,23.858
			c7.207,5.482,17.52,5.875,25.106,0.922c0.541,2.812,1.711,5.453,3.402,7.729c-3.352,4.804-7.051,9.385-11.24,13.487
			c-1.977,1.937-4.051,3.828-6.309,5.435c-1.863,1.325-3.889,2.543-5.322,4.365c-3.127,3.976-1.858,10.059,2.441,12.635
			c2.354,1.412,5.309,1.642,7.832,0.546c2.59-1.124,4.883-3.161,6.983-5.002c7.816-6.847,14.105-15.272,20.261-23.583
			c0.701,0.299,1.522,0.812,2.469,1.456c-2.529,2.87-4.766,6.031-7.115,9.045c-3.69,4.738-7.647,9.246-11.664,13.713
			c-2.055,2.286-4.363,4.376-6.537,6.549c-1.098,1.097-2.172,2.201-3.346,3.218c-4.744,4.116-9.451,8.246-14.611,11.847
			c-3.018,2.106-6.127,4.163-9.352,5.934c-1.688,0.926-3.34,1.957-5.086,2.763c-1.746,0.806-3.492,1.615-5.234,2.43
			c-8.73,3.341-16.689,5.987-22.814,4.751c-1.529-0.295-3.074-0.508-4.625-0.64c-3.023-0.255-6.072-0.195-9.082,0.182
			c-5.484,0.686-10.836,2.422-15.686,5.073c-7.852,4.29-14.264,10.993-18.238,19.006c-5.35,10.787-6.025,23.502-1.842,34.794
			c0.088,0.24,2.203,6.78,3.525,16.817c0.809,6.137,1.498,12.303,1.709,18.489c0.209,6.19,0.131,12.348-0.219,18.533
			c-0.363,6.469-1.146,12.869-2.117,19.272c-0.895,5.906-2.055,11.816-3.57,17.595c-0.951,3.636-1.969,7.267-2.818,10.928
			c-1.371,5.912-1.699,12.062-0.934,18.083c0.369,2.905,0.992,5.778,1.855,8.577c0.41,1.33,0.875,2.643,1.393,3.935
			c0.258,0.644,0.527,1.281,0.811,1.915c0.318,0.71,0.816,1.451,0.947,2.218c4.221,24.801,5.793,49.993,6.357,75.113
			c0.572,25.458-0.756,50.977-3.174,76.315c-0.686,7.196-1.635,14.376-2.471,21.558c-1.041,9.297,5.264,18.152,14.377,20.239
			c9.17,2.098,18.748-3.197,21.807-12.104c0.248-0.719,0.451-1.454,0.609-2.197c1.998-9.384,4.07-18.75,5.783-28.19
			c2.26-12.463,4.439-24.951,6.006-37.524c1.604-12.854,3.055-25.713,3.992-38.637c0.934-12.852,1.557-25.712,1.752-38.598
			c0.02-1.272,0.016-2.547,0.02-3.82c3.539,25.644,4.963,51.575,3.91,77.447c-0.471,11.519-1.506,22.957-2.838,34.403
			c-0.941,8.104-2.391,16.138-3.799,24.169c-1.604,9.308,4.293,18.587,13.387,21.115c9.061,2.52,18.873-2.328,22.338-11.083
			c0.278-0.707,0.516-1.431,0.709-2.167c2.385-9.104,4.664-18.215,6.573-27.434c2.563-12.365,4.509-24.827,6.052-37.357
			c3.145-25.521,3.936-51.398,2.826-77.08c-0.873-20.188-2.914-40.336-6.322-60.256c1.705-12.163,2.479-24.391,2.805-36.664
			c0.34-12.898-0.606-25.839-2.018-38.649c-1.111-10.104-2.994-20.148-5.332-30.036c-2.24-9.479-4.979-18.878-8.461-27.98
			c5.575-2.929,11.02-6.09,16.125-9.79c2.485-1.802,5.014-3.556,7.362-5.537c2.039-1.721,4.088-3.433,6.125-5.158
			c2.729-2.311,5.229-4.948,7.791-7.437c2.267-2.202,4.351-4.565,6.46-6.915c1.381-1.537,2.881-3.021,4.161-4.642
			c1.97-2.489,3.931-4.984,5.894-7.479c2.492-3.17,4.789-6.438,7.074-9.759c2.215-3.22,4.432-6.417,6.45-9.765
			c1.878-3.113,3.75-6.23,5.619-9.35c-0.475,4.171-1.157,8.373-1.35,12.569c-0.17,3.723,0.52,7.603,1.547,11.167
			c2.512,8.726,8.35,15.362,14.777,21.508c4.213,4.053,11.358,3.545,14.971-1.048C370.383,116.32,369.436,110.106,362.686,105.194z"
			/>
	</g>
</g>
<g>
</g>
<g>
</g>
<g>
</g>
<g>
</g>
<g>
</g>
<g>
</g>
<g>
</g>
<g>
</g>
<g>
</g>
<g>
</g>
<g>
</g>
<g>
</g>
<g>
</g>
<g>
</g>
<g>
</g>
</svg>
