<?xml version="1.0" encoding="iso-8859-1"?>
<!-- Generator: Adobe Illustrator 16.0.0, SVG Export Plug-In . SVG Version: 6.00 Build 0)  -->
<!DOCTYPE svg PUBLIC "-//W3C//DTD SVG 1.1//EN" "http://www.w3.org/Graphics/SVG/1.1/DTD/svg11.dtd">
<svg version="1.1" id="Capa_1" xmlns="http://www.w3.org/2000/svg" xmlns:xlink="http://www.w3.org/1999/xlink" x="0px" y="0px"
	 width="497.699px" height="497.699px" viewBox="0 0 497.699 497.699" style="enable-background:new 0 0 497.699 497.699;"
	 xml:space="preserve">
<g>
	<g>
		<path d="M294.699,112.274c17.999,0,35.078-9.477,44.637-24.726c9.693-15.465,10.596-35.438,2.334-51.716
			c-8.088-15.937-24.149-26.93-41.949-28.615c-18.037-1.707-36.021,6.172-46.978,20.603c-11.032,14.53-13.727,34.297-6.981,51.254
			c6.578,16.54,21.535,28.937,39.027,32.269C288.054,111.964,291.376,112.274,294.699,112.274z"/>
		<path d="M356.119,376.176c-0.022-0.311-0.044-0.623-0.066-0.934c0.007,0.043,0.013,0.086,0.02,0.129
			c-0.503-5.197-1.411-10.378-2.243-15.531c-0.987-6.121-2.076-12.227-3.182-18.328c-2.123-11.678-4.351-23.338-6.64-34.985
			c2.273-6.254,3.144-12.755,3.144-19.379c0-3.433,0-6.865,0-10.298c0-12.213,0-24.428,0-36.642c0-10.835,0-21.67,0-32.506
			c0-1.712,0-3.424,0-5.136c6.625,8.16,12.389,16.739,17.778,25.753c3.123,5.627,6.133,11.287,8.858,17.12
			c2.628,5.622,4.987,11.345,7.228,17.131c2.715,7.013,4.933,14.183,7.205,21.345c2.502,7.885,11.032,12.5,19.004,10.34
			c7.91-2.146,12.896-10.352,11.183-18.359c-4.762-22.176-10.758-44.288-20.562-64.837c-4.333-9.082-8.957-17.97-14.345-26.475
			c-6.783-10.706-14.479-20.781-23.17-30.012c-13.057-13.869-28.595-26.083-46.479-33.035c-4.656-1.81-9.503-3.271-14.47-3.908
			c-5.29-0.678-10.667-0.177-15.844,1.035c-7.942,1.86-15.429,5.371-22.313,9.699c-8.777,5.515-16.974,11.665-24.536,18.771
			c-9.22,8.663-17.385,18.352-24.686,28.671c-5.818,8.223-10.883,16.917-15.545,25.835c-2.914,5.577-5.526,11.327-7.978,17.122
			c-2.431,5.747-4.766,11.633-6.659,17.582c-2.349,7.375-4.641,14.734-6.543,22.24c-1.405,5.54-2.621,11.114-3.822,16.701
			c-1.719,8.086,3.382,16.379,11.395,18.443c7.938,2.045,16.332-2.625,18.799-10.438c6.778-21.62,15.01-43.069,27.412-62.167
			c4.111-6.328,8.426-12.441,13.182-18.31c0,6.562,0,13.124,0,19.686c0,12.833,0,25.666,0,38.499c0,8.824,0,17.646,0,26.471
			c0,6.295,0.85,12.486,2.934,18.449c-2.311,11.719-4.55,23.453-6.687,35.205c-1.109,6.102-2.192,12.208-3.19,18.33
			c-0.85,5.27-1.865,10.598-2.306,15.92c0.007-0.043,0.013-0.086,0.019-0.129c-0.773,10.646,0.159,21.299,1.234,31.896
			c1.258,12.389,2.896,24.742,4.654,37.07c1.818,12.75,3.809,25.473,5.871,38.184c1.533,9.26,10.198,16.047,19.561,15.242
			c9.15-0.789,16.473-8.584,16.658-17.773c0.011-0.559-0.004-1.117-0.043-1.676c-1.441-20.975-2.805-41.959-3.391-62.979
			c-0.188-6.75-0.318-13.51-0.205-20.264c0.08-4.791,0.938-13.557,0.961-13.712c3.221-13.587,6.92-27.039,10.744-40.468
			c3.643,0.388,7.315,0.404,10.961,0.037c1.911,6.731,3.805,13.469,5.633,20.225c1.809,6.686,3.763,13.406,5.098,20.207
			c0.025,0.156,0.85,8.148,0.941,12.561c0.135,6.492,0.032,12.992-0.135,19.482c-0.313,12.262-0.903,24.514-1.605,36.758
			c-0.539,9.416-1.268,18.818-1.84,28.23c-0.633,9.369,6.266,17.883,15.547,19.246c9.188,1.346,18.17-4.703,20.354-13.732
			c0.11-0.457,0.203-0.918,0.279-1.383c3.369-20.766,6.555-41.562,9.09-62.447c0.941-7.809,1.81-15.633,2.394-23.477
			C356.281,389.704,356.591,382.95,356.119,376.176z"/>
		<path d="M204.527,103.358c14.631-4.075,26.076-13.949,32.572-26.438c-4.392-13.971-3.454-29.362,2.607-42.692
			c-6.512-17.492-22.304-30.472-40.709-33.535c-18.531-3.083-37.811,4.275-49.584,18.903c-11.584,14.392-14.775,34.207-8.316,51.514
			c6.381,17.101,21.65,29.902,39.578,33.285C188.578,105.886,196.782,105.515,204.527,103.358
			C219.158,99.282,176.519,111.16,204.527,103.358z"/>
		<path d="M426.972,407.076c-7.003-21.023-13.829-42.115-20.166-63.352c-2.362-7.922-4.64-15.867-6.965-23.799
			c-1.819-6.213-3.533-12.397-5.944-18.416c-4.492-11.224-10.5-21.828-17.785-31.475c-3.426-4.537-7.176-8.824-10.984-13.042
			c-3.262-3.612-6.619-7.19-10.373-10.3c-0.377-0.311-0.761-0.61-1.143-0.914c-0.012,9.971-0.023,19.941-0.035,29.912
			c-0.008,6.078,0.339,12.154-0.211,18.22c-0.43,4.74-1.099,9.986-3.271,14.308c-0.032,0.066-0.067,0.133-0.104,0.197
			c3.084,9.356,6.146,18.719,9.202,28.084c3.322,10.182,6.634,20.367,9.935,30.555c1.951,6.025,3.9,12.052,5.844,18.08
			c1.931,5.986,4.604,11.77,7.033,17.568c2.605,6.223,5.25,12.43,7.901,18.633c3.724,8.648,13.396,13.643,22.601,11.586
			c9.068-2.027,15.671-10.365,15.543-19.66c-0.026-2.041-0.375-4.072-1.02-6.008L426.972,407.076z"/>
		<path d="M235.805,280.116l-0.041-34.338c-3.678,2.926-6.978,6.267-10.156,9.722c-3.854,4.188-7.643,8.473-11.141,12.965
			c-7.367,9.465-13.489,19.898-18.133,30.959c-2.664,6.34-4.549,12.813-6.477,19.394c-2.209,7.539-4.396,15.083-6.611,22.62
			c-6.45,21.947-13.543,43.718-20.771,65.42c-0.044,0.133-0.088,0.264-0.13,0.396c-2.92,8.773,0.781,18.703,8.759,23.395
			c8.175,4.811,18.881,3.018,25.102-4.123c1.349-1.547,2.452-3.303,3.264-5.188c3.633-8.498,7.257-17,10.78-25.543
			c1.193-2.898,2.584-5.787,3.545-8.771c1-3.103,2.002-6.204,3.004-9.306c1.877-5.811,3.758-11.619,5.643-17.428
			c5.086-15.673,10.193-31.339,15.338-46.992c0.534-1.627,1.068-3.256,1.605-4.883C239.385,308.415,234.799,300.393,235.805,280.116
			z"/>
		<path d="M433.8,37.439c-5.356-6.771-15.19-7.914-21.963-2.555c-7.789,6.149-15.606,12.257-23.938,17.667
			c-10.568,6.862-21.595,13.354-33.232,18.251c-0.545,0.229-1.089,0.458-1.633,0.688c-4.156,19.47-17.777,35.472-35.803,42.934
			c6.143,2.469,11.446,5.326,14.946,7.377c21.902-6.878,42.576-17.663,61.336-30.833c7.807-5.479,15.228-11.404,22.536-17.522
			c5.659-4.737,10.959-9.903,16.292-14.998C438.078,52.932,438.841,43.807,433.8,37.439C428.443,30.668,438.841,43.807,433.8,37.439
			z"/>
		<path d="M179.703,155.573c5.121,0.665,10.277,1.028,15.436,1.252c4.928,0.214,9.998,0.317,14.92-0.093l1.658,5.948
			c7.353-9.448,15.562-18.214,24.576-26.096c8.904-7.786,18.862-14.829,29.504-20.04c1.699-0.832,3.426-1.61,5.178-2.326
			c-13.225-5.617-24.028-15.852-30.391-28.664c-13.182,4.755-23.428,14.361-29.248,26.213c-22.545,4.461-46.252,2.083-68.297-3.898
			c-11.693-3.173-23.078-7.298-34.152-12.211c-8.658-3.841-17.003-8.3-25.295-12.866c-7.262-3.951-16.613-1.374-20.865,5.704
			c-4.221,7.028-2.133,16.405,4.656,20.993c18.781,12.696,38.443,24.503,59.746,32.509
			C144.137,148.389,161.596,153.476,179.703,155.573C185.117,156.277,174.272,154.945,179.703,155.573z"/>
	</g>
</g>
<g>
</g>
<g>
</g>
<g>
</g>
<g>
</g>
<g>
</g>
<g>
</g>
<g>
</g>
<g>
</g>
<g>
</g>
<g>
</g>
<g>
</g>
<g>
</g>
<g>
</g>
<g>
</g>
<g>
</g>
</svg>
