<?xml version="1.0" encoding="iso-8859-1"?>
<!-- Generator: Adobe Illustrator 16.0.0, SVG Export Plug-In . SVG Version: 6.00 Build 0)  -->
<!DOCTYPE svg PUBLIC "-//W3C//DTD SVG 1.1//EN" "http://www.w3.org/Graphics/SVG/1.1/DTD/svg11.dtd">
<svg version="1.1" id="Capa_1" xmlns="http://www.w3.org/2000/svg" xmlns:xlink="http://www.w3.org/1999/xlink" x="0px" y="0px"
	 width="480.17px" height="480.17px" viewBox="0 0 480.17 480.17" style="enable-background:new 0 0 480.17 480.17;"
	 xml:space="preserve">
<g>
	<path d="M322.447,4.696c-7.281-4.357-16.053-5.82-24.321-3.806c-8.312,2.025-15.475,7.362-20.495,14.207
		c-5.562,7.586-8.539,16.897-8.92,26.263c-0.403,9.919,2.891,19.361,7.955,27.782c5.801,9.645,13.639,18.058,22.185,25.353
		l-2.217,4.132c-0.499,0.93-0.474,2.053,0.068,2.958c0.542,0.905,1.52,1.459,2.574,1.459h3.629
		c-0.878,5.125-0.703,10.376,0.05,15.521c0.919,6.278,2.748,12.361,3.879,18.597c1.103,6.072,1.353,12.109,0.492,18.229
		c-0.872,6.207-2.249,12.331-3.135,18.54c-0.939,0.283-1.863,0.666-2.748,1.181l-0.687,0.4c-8.685,5.065-17.62,9.783-27.15,13.06
		c-6.926-1.594-13.577-4.466-20.057-7.332c-6.657-2.946-13.466-5.679-19.669-9.489c-13.439-8.253-20.38-16.743-33.433-15.907
		c8.534-4.125,15.576-11.103,19.781-19.598c4.269-8.622,5.485-18.62,3.459-28.022c-3.805-17.658-18.889-31.364-36.831-33.457
		c-18.121-2.113-36.02,7.819-43.778,24.338c-7.806,16.618-3.861,36.919,9.533,49.446c8.828,8.256,20.919,12.409,32.956,11.365
		c-12.214,6.245-20.634,18.888-20.773,33.556l-0.003,0.311c-0.185,18.639-1.374,37.273-2.338,55.885
		c-2.435,10.884-4.813,21.78-7.14,32.688c-3.219,15.095-6.342,30.209-9.267,45.364c-2.642,13.694-5.211,27.428-7.093,41.251
		c-0.625,4.588-1.212,9.208-1.388,13.839c-0.09,2.374-0.53,5.766,1.683,7.318c1.411,0.99,3.128,1.558,4.763,2.045
		c2.606,0.778,5.286,1.31,7.965,1.763c7.504,1.267,15.12,1.896,22.713,2.336c-0.027,22.096-2.171,44.104-4.694,66.029l-0.067,0.575
		c-0.915,8.178,4.963,15.835,13.083,17.11c8.067,1.267,15.945-4.167,17.645-12.149c2.093-9.816,4.122-19.625,5.917-29.501
		c2.279-12.542,4.251-25.258,5.477-37.951c0.118-1.214,0.235-2.428,0.352-3.642c2.131-0.061,4.264-0.134,6.396-0.225
		c-0.05,5.886-0.163,11.734-0.488,17.612c-0.325,5.869-0.767,11.687-1.384,17.531c-0.583,5.517-1.269,10.971-2.153,16.448
		c-0.548,3.396-1.092,6.793-1.636,10.189l-0.158,0.986c-1.289,8.19,4.34,16.138,12.472,17.691
		c8.014,1.53,16.056-3.637,18.016-11.552c0.917-3.698,1.833-7.396,2.744-11.098c1.459-5.923,2.702-11.843,3.845-17.835
		c1.185-6.21,2.175-12.409,3.04-18.671c0.874-6.32,1.542-12.626,2.12-18.979c0.17-1.878,0.338-3.756,0.503-5.635
		c10.161-1.52,20.853-3.379,30.185-7.88c2.878-1.388,5.868-3.148,7.776-5.785c1.483-2.05,1.655-4.293,1.549-6.742
		c-0.261-5.949-1.801-11.854-3.444-17.548c-2.225-7.706-4.946-15.265-7.812-22.752c-6.451-16.854-13.737-33.376-20.961-49.91
		c-3.861-8.841-7.767-17.672-11.339-26.635c-1.944-13.751-4.183-27.458-6.373-41.171c6.271,2.034,12.645,3.924,19.15,5.029
		c13.347,2.266,19.71-1.656,19.71-1.656c6.394-3.481,12.521-7.325,18.406-11.613c0.889,11.177,3.86,22.191,9.724,31.815
		c0.732,1.2,1.503,2.376,2.314,3.525c0.662,0.939,1.332,2.271,2.52,2.608c1.498,0.427,3.674-0.829,3.026-2.582
		c-0.423-1.146-1.523-2.204-2.207-3.212c-0.849-1.252-1.651-2.537-2.403-3.849c-1.405-2.454-2.638-5.007-3.688-7.632
		c-3.048-7.618-4.515-15.77-4.922-23.941c1.754-1.352,3.487-2.729,5.195-4.138c-0.214,0.18-0.317,0.268,0.164-0.13
		c0.245-0.206,0.335-0.282,0.342-0.288c1.173-0.985,2.347-1.97,3.51-2.968c3.785-3.247,5.338-8.59,3.881-13.36
		c-1.513-4.95-6-8.546-11.154-8.964c0.895-6.149,2.11-12.248,2.969-18.4c0.43-3.072,0.758-6.162,0.656-9.268
		c-0.104-3.207-0.562-6.392-1.159-9.54c-2.063-10.919-5.813-22.046-3.729-33.176h4.549c0.007,0,0.013,0,0.021,0c1.656,0,3-1.343,3-3
		c0-0.637-0.198-1.228-0.537-1.713l-2.101-3.856c5.642-4.826,10.907-10.125,15.548-15.92c6.018-7.514,11.164-16.07,13.432-25.507
		C345.77,35.347,338.366,14.222,322.447,4.696z"/>
</g>
<g>
</g>
<g>
</g>
<g>
</g>
<g>
</g>
<g>
</g>
<g>
</g>
<g>
</g>
<g>
</g>
<g>
</g>
<g>
</g>
<g>
</g>
<g>
</g>
<g>
</g>
<g>
</g>
<g>
</g>
</svg>
