<?xml version="1.0" encoding="iso-8859-1"?>
<!-- Generator: Adobe Illustrator 16.0.0, SVG Export Plug-In . SVG Version: 6.00 Build 0)  -->
<!DOCTYPE svg PUBLIC "-//W3C//DTD SVG 1.1//EN" "http://www.w3.org/Graphics/SVG/1.1/DTD/svg11.dtd">
<svg version="1.1" id="Capa_1" xmlns="http://www.w3.org/2000/svg" xmlns:xlink="http://www.w3.org/1999/xlink" x="0px" y="0px"
	 width="488.39px" height="488.389px" viewBox="0 0 488.39 488.389" style="enable-background:new 0 0 488.39 488.389;"
	 xml:space="preserve">
<g>
	<g>
		<path d="M106.515,344.826c-0.528,2.699,0.169,5.464,1.915,7.584c1.747,2.124,4.326,3.341,7.075,3.341h22.583l5.629,116.315
			c0.46,8.884,8.151,16.279,17.06,16.323c9.043,0.045,16.625-7.33,17.201-16.266l6.027-116.373h1.321l5.629,116.315
			c0.46,8.884,8.15,16.279,17.059,16.323c8.971,0.044,16.721-7.326,17.201-16.266l6.027-116.373h22.272
			c2.742,0,5.318-1.214,7.065-3.33c1.746-2.117,2.449-4.876,1.919-7.623l-28.333-122.36v-3.066
			c3.678,9.284,7.636,18.472,13.043,26.898l2.004,2.896c3.563,4.571,8.856,7.688,14.658,8.271
			c5.565,0.558,10.982-1.121,15.611-4.171c4.551-2.999,8.288-7.139,11.62-11.409c3.61-4.627,6.815-9.569,9.83-14.601
			c2.104-3.514,4.072-7.1,6.018-10.703c2.55-4.723,2.752-10.313,0.182-15.09c2.732-3.107,4.11-7.211,4.959-11.194
			c1.067-5.018,1.357-10.188,1.431-15.306c0.166-11.602-1.235-23.201-0.819-34.794c0.357-9.922,4.326-18.741,10.22-26.59
			c6.263-8.341,13.548-15.863,17.773-25.552c17.287-6.212,80.349-40.957,49.104-72.064c-17.506-15.331-35.932-1.319-35.932-1.319
			l-0.031-0.006c-6.777-9.458-18.862-16.931-30.757-13.987c-5.822,1.441-11.683,4.708-15.541,9.358
			c5.293-2.405,11.107-3.789,16.942-3.383c5.865,0.409,11.215,2.686,15.959,6.087c7.077,5.073,12.428,12.373,13.506,21.159
			c0.992,8.093-1.642,16.165-5.423,23.228c-4.687,8.752-11.203,16.474-18.188,23.473c2.648,3.027,4.973,5.425,6.685,6.998
			c-4.581,9.897-12.491,17.446-18.65,26.289c-2.881,4.136-5.307,8.585-6.905,13.376c-1.608,4.818-2.277,9.751-2.34,14.813
			c-0.127,10.59,0.954,21.159,0.87,31.752c-0.038,4.754-0.247,9.545-1.075,14.235c-0.639,3.619-1.639,7.442-3.893,10.421
			c-0.114-0.127-0.228-0.255-0.347-0.379c1.767-11.875,6.895-24.639,0.641-36.087c-2.38-4.357-6.069-7.637-9.259-11.366
			c-3.687-4.31-5.556-9.262-5.464-14.95c0.107-6.788,2.326-13.423,4.562-19.761c2.306-6.528,4.979-13.001,6.426-19.793
			c3.928-2.332,7.604-5.118,11.173-7.958c5.144-4.095,10.058-8.489,14.666-13.179c4.949-5.037,9.592-10.439,13.463-16.358
			c3.475-5.313,6.456-11.19,7.559-17.495c1.007-5.75,0.136-11.634-3.042-16.59c-4.199-6.55-11.818-11.883-19.579-12.819
			c-9.212-1.111-19.044,3.361-25.754,9.53h-0.031c-3.608-3.318-8.085-5.95-12.648-7.686c-3.989-1.518-8.291-2.316-12.562-1.903
			c-4.761,0.46-9.014,2.494-12.822,5.309c-5.172,3.824-9.295,9.079-10.424,15.53c-1.047,5.969,0.461,12.066,2.885,17.517
			c2.815,6.336,6.88,12.084,11.314,17.383c4.541,5.425,9.569,10.44,14.863,15.128c5.439,4.818,11.182,9.503,17.396,13.301
			c-2.721,12.172-9.148,23.319-10.693,35.794c-0.706,5.697-0.16,11.592,2.712,16.66c2.552,4.503,6.581,7.807,9.763,11.821
			c3.646,4.597,5.171,9.936,5.008,15.778c-0.188,6.674-2.161,13.134-3.32,19.669c-5.724-3.47-13.22-2.836-18.269,1.578
			c-1.898,1.66-3.097,3.768-4.468,5.83c-2.241,3.369-4.577,6.679-7.041,9.889c-0.933-3.071-5.089-25.087-21.772-52.313
			c-6.181-8.858-13.427-17.035-21.878-23.789c-7.473-5.97-15.995-11.254-25.377-13.503c-9.09-2.18-18.766-2.62-28.031-1.505
			c-11.399,1.372-21.634,7.042-25.681,9.634c-17.971,11.514-31.687,29.072-40.865,48.167c-4.994,10.388-8.723,21.408-11.542,32.574
			c-2.925,11.581-4.425,23.433-5.628,35.297c-0.457,7.095-0.764,14.168-0.929,21.276c0.027,3.109,0.057,6.221,0.086,9.331
			c0.022,2.396,0.189,4.653,1.116,6.896c1.649,3.985,5.045,7.17,9.148,8.513c8.789,2.878,18.348-3.603,19.106-12.782l0.045-0.555
			c0.271-3.287,0.544-6.573,0.813-9.86c0.733-6.295,1.575-12.549,2.553-18.811c2.398-12.368,5.391-24.542,10.032-36.282
			c0.869-1.986,1.662-4.021,2.575-5.973v11.453"/>
		<path d="M179.702,117.648c1.589,0.163,3.188,0.247,4.786,0.252c20.417,0.06,39.521-13.09,46.576-32.281
			c3.721-10.124,4.027-21.414,0.907-31.736c-2.983-9.874-9.12-18.605-17.331-24.834c-7.872-5.972-17.492-9.567-27.367-10.104
			c-9.981-0.542-20.017,2.086-28.525,7.312c-8.655,5.316-15.618,13.256-19.603,22.612c-4.229,9.929-5.075,21.195-2.469,31.661
			C141.647,100.49,159.274,115.554,179.702,117.648z"/>
		<path d="M184.516,117.9C184.764,117.901,184.591,117.9,184.516,117.9L184.516,117.9z"/>
	</g>
</g>
<g>
</g>
<g>
</g>
<g>
</g>
<g>
</g>
<g>
</g>
<g>
</g>
<g>
</g>
<g>
</g>
<g>
</g>
<g>
</g>
<g>
</g>
<g>
</g>
<g>
</g>
<g>
</g>
<g>
</g>
</svg>
