<?xml version="1.0" encoding="iso-8859-1"?>
<!-- Generator: Adobe Illustrator 16.0.0, SVG Export Plug-In . SVG Version: 6.00 Build 0)  -->
<!DOCTYPE svg PUBLIC "-//W3C//DTD SVG 1.1//EN" "http://www.w3.org/Graphics/SVG/1.1/DTD/svg11.dtd">
<svg version="1.1" id="Capa_1" xmlns="http://www.w3.org/2000/svg" xmlns:xlink="http://www.w3.org/1999/xlink" x="0px" y="0px"
	 width="494.575px" height="494.575px" viewBox="0 0 494.575 494.575" style="enable-background:new 0 0 494.575 494.575;"
	 xml:space="preserve">
<g>
	<g>
		<path d="M231.096,104.835c5.231,1.655,10.713,2.488,16.199,2.488c17.994,0,35.111-9.287,44.954-24.346
			c9.982-15.273,11.452-35.15,3.824-51.729c-7.443-16.178-22.873-27.89-40.479-30.623c-17.948-2.787-36.445,3.864-48.488,17.462
			c-12.08,13.641-16.433,32.97-11.377,50.482C200.653,85.635,214.162,99.48,231.096,104.835z"/>
		<path d="M174.372,242.433c-0.009-0.009-0.016-0.017-0.025-0.027c0.006,0.005,0.011,0.011,0.016,0.017
			C174.366,242.426,174.369,242.43,174.372,242.433z"/>
		<path d="M188.17,256.291c-4.701-4.458-9.346-9.102-13.799-13.858c0.574,0.613,0.677,0.723-0.01-0.01
			c-20.483-21.887-3.236-3.458-0.016-0.017c-24.271-25.938-38.715-50.121-43.112-72.101c-6.304,8.649-11.505,18.326-13.79,28.854
			c-2.327,10.721-1.173,22.267,3.984,32.025c1.621,3.516,4.054,6.826,6.591,9.744c3.745,4.309,7.995,8.021,12.659,11.309
			c8.23,5.8,17.438,9.829,26.786,13.44C175.662,268.82,185.14,264.529,188.17,256.291z"/>
		<path d="M378.011,204.601C378.48,209.163,377.553,200,378.011,204.601L378.011,204.601z"/>
		<path d="M378.011,204.601c-1.248-12.541-7.336-24.247-14.655-34.294c-3.884,19.416-14.486,37.036-26.415,52.549
			c-9.206,11.971-19.566,23.047-30.509,33.442c2.996,8.262,12.505,12.545,20.691,9.379c9.349-3.612,18.556-7.642,26.786-13.44
			c4.664-3.287,8.914-7,12.659-11.309c2.537-2.918,4.97-6.228,6.591-9.744C377.457,223.052,378.948,213.703,378.011,204.601z"/>
		<path d="M160.205,206.665c8.099,11.863,17.561,22.775,27.626,33.001c9.413,9.562,19.411,18.556,29.849,26.985
			c7.642,6.172,15.514,12.146,23.828,17.39c0.465,0.293,0.931,0.583,1.399,0.869l4.387,2.721l3.336-2.087
			c32.252-19.152,159.504-122.514,73.938-176.324c-8.276-5.205-17.816-8.025-27.604-7.967c-8.442,0.05-16.771,2.117-24.53,5.368
			c-6.271,2.628-12.223,6.021-17.768,9.953c-2.528,1.793-5.032,3.682-7.313,5.789c-0.108,0.101-5.33-4.255-5.696-4.528
			c-5.159-3.833-10.697-7.184-16.524-9.897c-7.49-3.487-15.542-5.925-23.807-6.536c-9.476-0.701-18.958,1.185-27.396,5.574
			c-6.998,3.64-13.569,8.643-18.993,14.37c-4.316,4.557-7.927,9.796-10.359,15.595c-4.573,10.906-4.471,22.972-1.539,34.29
			C146.349,184,152.807,195.829,160.205,206.665z M160.251,132.821c3.269-3.888,7.172-7.207,11.335-10.1
			c4.729-3.287,9.786-5.968,15.44-7.239c6.4-1.439,13.06-1.083,19.406,0.455c-5.708,1.589-10.8,4.62-15.528,8.127
			c-3.979,2.952-7.675,6.334-10.704,10.268c-5.214,6.77-7.972,15.036-7.647,23.594c0.212,5.62,1.713,11.154,3.6,16.422
			c2.307,6.437,5.293,12.622,8.553,18.624c7.31,13.456,16.044,26.13,25.209,38.379c7.887,10.54,16.178,20.779,24.757,30.763
			c3.542,4.12,7.117,8.219,10.808,12.207c0,0-94.143-68.797-94.143-117.427C151.336,147.987,154.533,139.622,160.251,132.821z"/>
		<path d="M329.581,370.422l-28.917-88.64l-0.635-19.544c-9.021,8.174-18.423,15.954-28.234,23.164
			c-5.989,4.399-12.212,8.379-18.505,12.317c-1.99,1.246-3.98,2.491-5.97,3.736c-4.031-2.5-8.083-4.965-12.091-7.502
			c-8.786-5.564-17.103-11.892-25.168-18.445c-5.284-4.294-10.454-8.73-15.503-13.3l-0.531,20.742l-29.022,87.497
			c-0.528,2.698,0.169,5.464,1.915,7.584c1.748,2.124,4.326,3.341,7.075,3.341h26.985c0.137,3.27,0.273,6.54,0.41,9.81
			c0.469,11.234,0.938,48.469,1.407,59.703c0.3,7.178,0.6,14.354,0.899,21.532c0.061,1.449,0.121,2.897,0.182,4.347
			c0.414,9.225,7.852,17.007,17.068,17.752c9.153,0.739,17.717-5.58,19.666-14.563c0.216-0.995,0.35-2.008,0.4-3.025
			c0.234-4.638,0.469-9.275,0.703-13.915c0.557-11.041,2.809-81.638,2.809-81.638h5.792c0.329,7.893,1.899,71.461,2.354,82.354
			c0.182,4.345,0.363,8.69,0.545,13.036c0.414,9.223,7.852,17.006,17.068,17.751c9.152,0.738,17.717-5.579,19.666-14.563
			c0.216-0.995,0.35-2.008,0.399-3.025c0.174-3.435,0.348-6.869,0.521-10.305c0.446-8.86,0.895-17.723,1.343-26.585
			c0.549-10.888,1.099-47.774,1.648-58.663h26.732c2.742,0,5.318-1.214,7.065-3.33C329.41,375.927,330.113,373.168,329.581,370.422z
			"/>
	</g>
</g>
<g>
</g>
<g>
</g>
<g>
</g>
<g>
</g>
<g>
</g>
<g>
</g>
<g>
</g>
<g>
</g>
<g>
</g>
<g>
</g>
<g>
</g>
<g>
</g>
<g>
</g>
<g>
</g>
<g>
</g>
</svg>
